<svg width="17" height="17" viewBox="0 0 17 17" fill="none" xmlns="http://www.w3.org/2000/svg">
<g opacity="0.5">
<ellipse cx="8.5" cy="8.63202" rx="8.5" ry="8.31171" fill="white"/>
<path d="M8.42534 13.3493C8.13734 13.3493 7.88934 13.2493 7.68134 13.0493C7.48134 12.8413 7.38134 12.5933 7.38134 12.3053C7.38134 12.0173 7.48134 11.7733 7.68134 11.5733C7.88934 11.3733 8.13734 11.2733 8.42534 11.2733C8.71334 11.2733 8.95734 11.3733 9.15734 11.5733C9.35734 11.7733 9.45734 12.0173 9.45734 12.3053C9.45734 12.5933 9.35734 12.8413 9.15734 13.0493C8.95734 13.2493 8.71334 13.3493 8.42534 13.3493ZM7.60934 7.15734V4.68534H9.22934V7.15734L9.06134 10.3253H7.77734L7.60934 7.15734Z" fill="#274FED"/>
</g>
</svg>
