<svg width="42" height="12" viewBox="0 0 42 12" fill="none" xmlns="http://www.w3.org/2000/svg">
<g clip-path="url(#clip0_1_491)">
<path d="M42.0003 9.69341C41.9893 9.74297 41.9801 9.79169 41.9675 9.84041C41.9199 10.0179 41.8174 10.1758 41.6747 10.2915C41.532 10.4072 41.3563 10.4748 41.1729 10.4847C40.9248 10.5036 40.6755 10.4701 40.4412 10.3864L40.2228 10.3117C40.1388 10.2831 40.0792 10.2898 40.0338 10.3671C40.0161 10.4005 39.9877 10.427 39.9531 10.4422C39.9185 10.4575 39.8797 10.4606 39.8431 10.4511C39.8213 10.4511 39.7995 10.4511 39.7726 10.4511V9.44309C39.844 9.44309 39.9137 9.44309 39.9834 9.44309C40.0019 9.44309 40.0237 9.47165 40.0338 9.49181C40.1181 9.67328 40.2281 9.84162 40.3606 9.99161C40.4415 10.0868 40.5468 10.1583 40.6651 10.1983C40.7834 10.2384 40.9105 10.2457 41.0326 10.2193C41.1159 10.206 41.1927 10.1661 41.2514 10.1055C41.3102 10.0449 41.3478 9.96695 41.3585 9.88325C41.3669 9.82602 41.3583 9.76758 41.3338 9.71517C41.3093 9.66277 41.27 9.61869 41.2207 9.58841C41.0986 9.50757 40.9705 9.43597 40.8377 9.37421C40.6621 9.29021 40.479 9.22049 40.3018 9.13901C40.2307 9.10437 40.1625 9.06421 40.0977 9.01889C39.9506 8.92984 39.836 8.79589 39.7708 8.63679C39.7056 8.47769 39.6933 8.30186 39.7356 8.13521C39.7753 7.96951 39.8639 7.81957 39.9899 7.70484C40.1158 7.59011 40.2734 7.51587 40.4421 7.49177C40.6639 7.45337 40.892 7.47305 41.104 7.54889C41.1745 7.57325 41.2443 7.60013 41.3148 7.62449C41.4669 7.67657 41.5114 7.65641 41.5752 7.50605H41.7483C41.7609 7.50605 41.7743 7.50605 41.7911 7.50605V8.36957C41.7197 8.36957 41.6517 8.36957 41.5845 8.36957C41.5677 8.36957 41.5483 8.34437 41.5366 8.32673C41.4626 8.2004 41.3807 8.07892 41.2913 7.96301C41.2078 7.86364 41.0977 7.79014 40.9739 7.75116C40.8501 7.71218 40.7178 7.70932 40.5924 7.74293C40.5169 7.75417 40.447 7.78938 40.393 7.84337C40.339 7.89737 40.3038 7.96728 40.2925 8.04281C40.2869 8.08235 40.2917 8.12269 40.3064 8.15982C40.3211 8.19694 40.3453 8.22958 40.3765 8.25449C40.4745 8.33117 40.58 8.3976 40.6915 8.45273C40.9032 8.54933 41.1241 8.62073 41.3367 8.71901C41.4545 8.77309 41.5669 8.83805 41.6727 8.91305C41.757 8.96943 41.8283 9.04306 41.882 9.12907C41.9358 9.21509 41.9706 9.31153 41.9843 9.41201C41.9873 9.4223 41.9915 9.43217 41.9969 9.44141L42.0003 9.69341Z" fill="black"/>
<path d="M-0.00138625 7.55972L0.892374 7.50092C0.976374 7.49504 1.06037 7.48496 1.15697 7.47656V7.56056C1.15697 8.28464 1.15697 9.009 1.15697 9.73364C1.15697 9.79916 1.16285 9.86468 1.16789 9.9302C1.17123 9.98074 1.19183 10.0286 1.22623 10.0657C1.26064 10.1029 1.30677 10.1271 1.35689 10.1343L1.43249 10.1536V10.3972H0.0187737V10.1536L0.117894 10.1343C0.164089 10.1237 0.205533 10.0983 0.235876 10.0618C0.26622 10.0254 0.283789 9.98008 0.285894 9.93272C0.292733 9.88062 0.29666 9.82818 0.297654 9.77564C0.297654 9.23524 0.297654 8.69512 0.297654 8.15528C0.297221 8.11143 0.293854 8.06765 0.287574 8.02424C0.272454 7.9016 0.234654 7.86044 0.113694 7.83608C0.0747161 7.83075 0.035434 7.82794 -0.00390625 7.82768L-0.00138625 7.55972Z" fill="black"/>
<path d="M24.2871 3.65328C24.2191 3.71292 24.1519 3.7692 24.0872 3.828C23.7361 4.14132 23.4379 4.49412 23.2632 4.93848C22.9784 5.66004 23.0179 6.80412 23.7907 7.54248C24.0139 7.76877 24.2685 7.96171 24.5467 8.11536C24.5545 8.11772 24.5617 8.12186 24.5676 8.12744C24.5736 8.13303 24.5781 8.13991 24.581 8.14755C24.5838 8.1552 24.5849 8.1634 24.584 8.17151C24.5832 8.17962 24.5805 8.18743 24.5761 8.19432C24.4728 8.4522 24.3829 8.71596 24.2661 8.9688C24 9.55799 23.6333 10.0963 23.1825 10.5598C23.0531 10.6883 22.915 10.8079 22.7693 10.9176C22.6136 11.0452 22.4274 11.13 22.229 11.1638C22.0306 11.1975 21.8268 11.179 21.6378 11.11C21.4379 11.0428 21.2405 10.9688 21.0498 10.8907C20.5201 10.6695 19.9243 10.6677 19.3933 10.8857C19.1917 10.9697 18.9893 11.0461 18.7851 11.12C18.6023 11.1898 18.4046 11.211 18.2111 11.1815C18.0177 11.1521 17.8352 11.073 17.6814 10.952C17.4097 10.7529 17.1708 10.5126 16.9733 10.2397C16.6346 9.80188 16.3419 9.3304 16.0997 8.83273C15.7705 8.14256 15.5639 7.40043 15.489 6.63948C15.4328 6.1459 15.4427 5.64702 15.5184 5.15604C15.6419 4.45296 15.9073 3.81792 16.4214 3.30804C16.8233 2.9106 17.3467 2.65923 17.9082 2.59404C18.4334 2.51423 18.9704 2.59904 19.4454 2.8368C19.5294 2.87964 19.6226 2.91492 19.7117 2.9502C19.842 3.00425 19.9817 3.03207 20.1228 3.03207C20.2639 3.03207 20.4037 3.00425 20.534 2.9502C20.7297 2.87208 20.9204 2.7822 21.122 2.71836C22.0217 2.43864 22.8818 2.49996 23.6798 3.0384C23.8975 3.18408 24.0885 3.36623 24.2443 3.57684C24.2535 3.60204 24.2687 3.6264 24.2871 3.65328Z" fill="black"/>
<path d="M5.34511 6.68915C5.33079 6.71054 5.31869 6.73334 5.30899 6.75719C5.19699 7.12455 5.08499 7.49163 4.97299 7.85843L4.21699 10.3515C4.21195 10.3683 4.20607 10.3843 4.19935 10.4045H3.80875C3.79951 10.3801 3.78859 10.3524 3.77935 10.3205C3.39463 9.13607 3.00963 7.95195 2.62435 6.76811C2.61427 6.73703 2.62435 6.67991 2.54707 6.69671V6.76559C2.54707 7.72767 2.54707 8.68919 2.54707 9.65015C2.54915 9.73462 2.55729 9.81884 2.57143 9.90215C2.57672 9.94742 2.59665 9.98972 2.62818 10.0226C2.65972 10.0555 2.70115 10.0772 2.74615 10.0844C2.85115 10.1071 2.95783 10.1239 3.07039 10.1441V10.4045H1.69615V10.1331C1.77091 10.1231 1.84819 10.1138 1.92547 10.1004C2.13211 10.0643 2.18671 10.0071 2.20855 9.80135C2.21359 9.74675 2.21695 9.69131 2.21695 9.63335C2.21695 8.81687 2.21695 8.00011 2.21695 7.18307C2.21528 7.09861 2.20742 7.01438 2.19343 6.93107C2.18818 6.88341 2.16727 6.83885 2.13399 6.80434C2.1007 6.76984 2.05691 6.74734 2.00947 6.74039C1.90699 6.71939 1.80283 6.70427 1.69531 6.68663V6.42875H1.75579C2.29003 6.42875 2.82427 6.42875 3.35851 6.42875C3.41143 6.42875 3.42907 6.44807 3.44251 6.49427C3.71579 7.33427 3.98907 8.17651 4.26235 9.02099C4.26991 9.04283 4.27831 9.06467 4.29259 9.10499C4.35727 8.89331 4.41607 8.70179 4.47403 8.50943C4.67843 7.83743 4.88199 7.16543 5.08471 6.49343C5.08602 6.48299 5.08946 6.47292 5.09479 6.46385C5.10013 6.45478 5.10727 6.4469 5.11576 6.44069C5.12426 6.43447 5.13393 6.43006 5.14419 6.42772C5.15445 6.42538 5.16508 6.42516 5.17543 6.42707C5.70715 6.42707 6.23887 6.42707 6.77143 6.42707H6.84283V6.68915C6.75883 6.70091 6.68071 6.70931 6.59923 6.72443C6.39931 6.76055 6.33463 6.83531 6.32119 7.03859C6.32119 7.08899 6.32119 7.13939 6.32119 7.18979C6.32119 8.00459 6.32119 8.81939 6.32119 9.63419C6.32246 9.72376 6.33088 9.81308 6.34639 9.90131C6.35265 9.94267 6.37161 9.98106 6.40066 10.0112C6.42971 10.0413 6.4674 10.0616 6.50851 10.0693C6.61771 10.0945 6.72775 10.1121 6.84451 10.1348V10.3935H4.84951V10.1323L5.14435 10.0836C5.20288 10.0761 5.25675 10.0478 5.2961 10.0038C5.33544 9.95986 5.35761 9.90318 5.35855 9.84419C5.36443 9.78539 5.37115 9.72575 5.37115 9.66695C5.37115 8.69423 5.37115 7.72151 5.37115 6.74879V6.68999L5.34511 6.68915Z" fill="black"/>
<path d="M25.8135 10.4814H25.5371C25.5094 9.95221 25.4817 9.42553 25.4531 8.88541C25.5623 8.88541 25.6648 8.88541 25.7664 8.88541C25.7824 8.88541 25.8026 8.91816 25.811 8.93916C25.9079 9.19632 26.0399 9.43885 26.2032 9.65989C26.3813 9.89005 26.593 10.0799 26.882 10.1563C27.0861 10.2184 27.3055 10.2068 27.5019 10.1236C27.6304 10.0735 27.7362 9.97807 27.7992 9.85535C27.8621 9.73262 27.878 9.59107 27.8438 9.45745C27.8327 9.3965 27.8087 9.33862 27.7735 9.28765C27.7383 9.23667 27.6927 9.19376 27.6396 9.16177C27.5041 9.0835 27.3629 9.01555 27.2171 8.95849C26.9752 8.86609 26.7266 8.79049 26.483 8.70649C26.2164 8.61499 25.9827 8.447 25.811 8.22349C25.37 7.63549 25.5506 6.50905 26.5997 6.34777C26.9219 6.30632 27.2492 6.35882 27.5422 6.49897C27.5878 6.5203 27.635 6.538 27.6833 6.55189C27.7071 6.5613 27.7326 6.5656 27.7582 6.5645C27.7837 6.56341 27.8088 6.55695 27.8317 6.54554C27.8546 6.53413 27.8748 6.51803 27.8911 6.49828C27.9073 6.47853 27.9193 6.45558 27.9261 6.43093C27.937 6.40489 27.9454 6.37801 27.9563 6.34693H28.1949C28.2167 6.76693 28.2386 7.18105 28.2612 7.60693C28.173 7.60693 28.0932 7.60693 28.0092 7.60693C27.995 7.60693 27.9807 7.57836 27.9698 7.56072C27.8597 7.38684 27.7631 7.20288 27.6396 7.03908C27.4947 6.83342 27.2759 6.69169 27.029 6.64345C26.8403 6.60234 26.6433 6.6257 26.4695 6.70981C26.1495 6.87025 26.0999 7.22725 26.3603 7.47085C26.4741 7.57189 26.6086 7.64699 26.7543 7.69093C27.0432 7.78837 27.3364 7.87489 27.6195 7.98577C27.7675 8.04716 27.9061 8.12917 28.0311 8.22937C28.3427 8.47213 28.4654 8.80728 28.4746 9.19368C28.4872 9.72792 28.2159 10.1849 27.753 10.3865C27.4262 10.5259 27.0602 10.5435 26.7215 10.436C26.5695 10.3924 26.4225 10.3327 26.2738 10.2806C26.2142 10.2596 26.1554 10.2353 26.094 10.2185C26.0714 10.2091 26.0471 10.2047 26.0226 10.2054C25.9982 10.2061 25.9742 10.2119 25.9521 10.2225C25.9301 10.2332 25.9105 10.2483 25.8947 10.267C25.879 10.2857 25.8673 10.3075 25.8605 10.331C25.8404 10.3772 25.8303 10.4276 25.8135 10.4814Z" fill="black"/>
<path d="M8.83077 10.0425C8.75433 10.103 8.68125 10.166 8.60313 10.2223C8.40542 10.3751 8.16822 10.4684 7.91937 10.4911C7.74671 10.5104 7.57277 10.4683 7.42807 10.3721C7.28337 10.276 7.17716 10.1319 7.12809 9.96526C7.08731 9.81347 7.09367 9.65287 7.14633 9.50478C7.19899 9.35669 7.29547 9.22813 7.42293 9.13618C7.64225 8.98388 7.89328 8.88335 8.15709 8.84218C8.34441 8.80606 8.53509 8.78842 8.72409 8.75818C8.74341 8.75818 8.77533 8.73298 8.77533 8.71954C8.76861 8.49694 8.77533 8.27182 8.74509 8.04754C8.71989 7.84342 8.61489 7.75774 8.40909 7.72414C8.28141 7.69576 8.14804 7.70809 8.02773 7.75942C7.94373 7.79722 7.94373 7.8199 7.98825 7.89466C8.01597 7.93918 8.04789 7.97866 8.07225 8.02906C8.10094 8.08465 8.11508 8.1466 8.11335 8.20913C8.11163 8.27166 8.0941 8.33273 8.0624 8.38666C8.0307 8.44058 7.98586 8.4856 7.93206 8.51752C7.87826 8.54943 7.81726 8.56721 7.75473 8.56918C7.69877 8.57526 7.64223 8.57357 7.58673 8.56414C7.30113 8.51122 7.16673 8.23822 7.29357 7.96102C7.34548 7.85264 7.42703 7.76119 7.52877 7.69726C7.71487 7.57657 7.92835 7.50465 8.14953 7.4881C8.41859 7.45564 8.69136 7.47445 8.95341 7.54354C9.33813 7.65358 9.54141 7.91818 9.59181 8.30458C9.60342 8.39595 9.60875 8.488 9.60777 8.5801C9.60777 9.01102 9.60777 9.4411 9.60777 9.87118C9.60777 9.89386 9.60777 9.9157 9.60777 9.93754C9.61449 10.0543 9.67161 10.0929 9.78417 10.0577C9.81525 10.0476 9.84549 10.0333 9.87741 10.0249C9.89325 10.0169 9.91121 10.0141 9.92872 10.017C9.94623 10.0198 9.96239 10.0281 9.97489 10.0407C9.98739 10.0533 9.99558 10.0695 9.99829 10.0871C10.001 10.1046 9.99809 10.1225 9.98997 10.1383C9.97744 10.1779 9.95554 10.2139 9.92613 10.2433C9.838 10.3301 9.73016 10.3944 9.61183 10.4305C9.4935 10.4666 9.36818 10.4736 9.24657 10.4508C9.17898 10.4394 9.11482 10.4129 9.05884 10.3734C9.00286 10.3338 8.95649 10.2822 8.92317 10.2223C8.88873 10.1669 8.86269 10.1055 8.83077 10.0425ZM8.77953 8.98078C8.57251 9.00215 8.37223 9.06652 8.19153 9.16978C8.1006 9.22287 8.02787 9.30223 7.98289 9.39743C7.93791 9.49264 7.9228 9.59923 7.93953 9.70318C7.94265 9.76858 7.96539 9.83153 8.0048 9.88382C8.0442 9.93611 8.09844 9.97532 8.16045 9.99634C8.21194 10.0177 8.26723 10.0285 8.32299 10.0279C8.37874 10.0273 8.4338 10.0154 8.48483 9.99299C8.53587 9.97053 8.58182 9.93796 8.61991 9.89725C8.658 9.85653 8.68744 9.80852 8.70645 9.7561C8.80977 9.50746 8.79129 9.24874 8.77953 8.98078Z" fill="black"/>
<path d="M33.7381 8.94754C33.7289 9.4969 33.555 9.93202 33.1333 10.2479C32.9681 10.3661 32.7781 10.4454 32.5778 10.4797C32.3775 10.514 32.172 10.5024 31.9768 10.4458C31.7816 10.3892 31.6018 10.289 31.4509 10.1529C31.3 10.0168 31.1819 9.8482 31.1056 9.65986C31.0093 9.44076 30.9601 9.20394 30.9609 8.96464C30.9618 8.72535 31.0128 8.48889 31.1106 8.2705C31.3298 7.75306 31.8095 7.4641 32.3782 7.47082C33.1543 7.48006 33.6314 8.05882 33.7138 8.68462C33.7264 8.79046 33.7322 8.88454 33.7381 8.94754ZM32.7763 8.9845C32.7763 8.8165 32.7839 8.64178 32.7763 8.47126C32.7748 8.2928 32.74 8.11619 32.6738 7.95046C32.6496 7.88504 32.6056 7.82878 32.548 7.78949C32.4903 7.75021 32.4219 7.72984 32.3521 7.73122C32.2814 7.72712 32.2113 7.74635 32.1526 7.78595C32.0938 7.82556 32.0497 7.88335 32.027 7.95046C31.9879 8.05008 31.9614 8.15421 31.9481 8.26042C31.8953 8.71004 31.8916 9.16408 31.9372 9.6145C31.9511 9.75385 31.9822 9.89095 32.0296 10.0227C32.0516 10.0882 32.0947 10.1446 32.1522 10.183C32.2096 10.2214 32.2781 10.2398 32.3471 10.2353C32.4158 10.2388 32.4839 10.2208 32.5419 10.1838C32.5999 10.1467 32.6448 10.0925 32.6705 10.0286C32.6947 9.97708 32.713 9.92298 32.7251 9.86734C32.7802 9.57651 32.7975 9.27975 32.7763 8.9845Z" fill="black"/>
<path d="M39.0101 9.56096L39.2621 9.65084C39.1621 9.93261 38.9665 10.1704 38.7094 10.3228C38.2826 10.5631 37.5686 10.5858 37.0991 10.1599C36.8199 9.90546 36.6489 9.55375 36.6211 9.17708C36.5885 8.89278 36.6242 8.60479 36.7253 8.33708C36.8213 8.07747 36.9965 7.85459 37.226 7.69994C37.4556 7.54529 37.7279 7.46669 38.0046 7.47524C38.7606 7.47524 39.1991 8.01536 39.2705 8.6252C39.2822 8.72432 39.2856 8.82512 39.2932 8.93348H37.5846C37.5801 8.9466 37.5767 8.96009 37.5745 8.9738C37.5538 9.24146 37.5785 9.51071 37.6476 9.77012C37.7459 10.091 37.9676 10.2321 38.2919 10.1851C38.444 10.1663 38.585 10.096 38.6917 9.986C38.7887 9.87638 38.8798 9.7617 38.9647 9.64244C38.9817 9.61636 38.9969 9.58913 39.0101 9.56096ZM38.3876 8.67728C38.3948 8.56988 38.3948 8.46212 38.3876 8.35472C38.3714 8.20931 38.341 8.06583 38.2969 7.92632C38.2758 7.86288 38.2338 7.80844 38.1779 7.77185C38.1219 7.73525 38.0552 7.71864 37.9886 7.72472C37.9221 7.72119 37.8563 7.73935 37.801 7.77646C37.7457 7.81358 37.704 7.86764 37.682 7.93052C37.5863 8.16908 37.5896 8.42192 37.5762 8.67728H38.3876Z" fill="black"/>
<path d="M14.7109 9.5672L14.9411 9.6512C14.8822 9.81127 14.7942 9.95907 14.6815 10.0872C14.4827 10.3086 14.2082 10.4476 13.9121 10.4769C13.722 10.5098 13.5271 10.502 13.3402 10.4543C13.1533 10.4065 12.9787 10.3198 12.8276 10.1997C12.5442 9.96923 12.3606 9.63823 12.3152 9.27572C12.2608 8.96033 12.2916 8.63614 12.4043 8.3366C12.4999 8.0758 12.6753 7.8518 12.9056 7.69646C13.1359 7.54113 13.4093 7.46237 13.687 7.4714C14.4354 7.4756 14.8772 8.009 14.947 8.61632C14.9587 8.71712 14.9629 8.8196 14.9713 8.92964H13.267C13.263 8.94031 13.26 8.95126 13.2577 8.9624C13.2352 9.23192 13.2594 9.50329 13.3291 9.7646C13.4274 10.0872 13.6483 10.2274 13.9717 10.1846C14.1391 10.1614 14.2929 10.0799 14.406 9.95444C14.5135 9.836 14.6042 9.70328 14.7109 9.5672ZM14.0734 8.67764C14.0734 8.65244 14.0734 8.63564 14.0734 8.618C14.0683 8.50628 14.0734 8.39372 14.0557 8.282C14.0413 8.16792 14.0163 8.05543 13.981 7.946C13.9638 7.88619 13.9286 7.83313 13.8802 7.79405C13.8318 7.75496 13.7726 7.73176 13.7105 7.7276C13.5148 7.70912 13.3888 7.79732 13.3283 8.00312C13.2732 8.22017 13.2481 8.44371 13.2535 8.66756C13.2535 8.66756 13.2586 8.67428 13.2628 8.67848L14.0734 8.67764Z" fill="black"/>
<path d="M30.0049 6.4375V7.5589H30.6341V7.8109H30.0091C30.0091 7.84282 30.0049 7.86634 30.0049 7.88986C30.0049 8.40982 30.0049 8.93062 30.0049 9.45058C30.0081 9.57084 30.0177 9.69084 30.0335 9.8101C30.0402 9.8514 30.0547 9.89104 30.0763 9.92686C30.0856 9.94784 30.1002 9.96602 30.1187 9.97959C30.1371 9.99316 30.1589 10.0016 30.1816 10.0042C30.2044 10.0067 30.2275 10.0033 30.2485 9.99412C30.2695 9.98498 30.2878 9.97047 30.3014 9.95206C30.3473 9.89633 30.381 9.83168 30.4006 9.76222C30.4325 9.63958 30.4476 9.51022 30.4686 9.38758C30.4728 9.36658 30.4728 9.34474 30.4753 9.3187H30.7324C30.7328 9.40294 30.7278 9.48712 30.7172 9.5707C30.6969 9.71783 30.6626 9.86269 30.6148 10.0033C30.5574 10.1622 30.4481 10.2972 30.3044 10.3862C30.1608 10.4752 29.9914 10.5132 29.8235 10.4939C29.7688 10.4909 29.7143 10.4842 29.6605 10.4737C29.5694 10.4584 29.4839 10.4193 29.4128 10.3603C29.3417 10.3013 29.2875 10.2245 29.2556 10.1377C29.1919 9.96402 29.1608 9.78004 29.1641 9.59506C29.1641 9.03142 29.1641 8.46694 29.1641 7.90246V7.81846H28.8398V7.56646C29.0617 7.49945 29.2567 7.36389 29.3968 7.17922C29.5378 6.98509 29.6376 6.7641 29.6899 6.5299C29.7076 6.45766 29.737 6.43498 29.8084 6.4417C29.8739 6.4437 29.9395 6.4423 30.0049 6.4375Z" fill="black"/>
<path d="M11.8021 9.31572H12.0541C12.0541 9.66852 12.0188 10.0087 11.7601 10.2784C11.6794 10.3569 11.5824 10.4168 11.476 10.4537C11.3696 10.4906 11.2563 10.5035 11.1443 10.4917C11.0852 10.4894 11.0264 10.4815 10.9688 10.4682C10.8778 10.4496 10.7933 10.4072 10.724 10.3454C10.6547 10.2836 10.6029 10.2045 10.574 10.1162C10.5089 9.91086 10.4804 9.69561 10.49 9.48036C10.49 8.95368 10.49 8.427 10.49 7.90032V7.81632H10.1641C10.1641 7.73652 10.1641 7.66428 10.1641 7.59288C10.1656 7.58488 10.169 7.57739 10.1742 7.57108C10.1793 7.56477 10.1859 7.55985 10.1935 7.55676C10.6521 7.40136 10.8655 7.03848 10.9957 6.60756C11.0125 6.5538 11.0141 6.47904 11.0511 6.45216C11.0881 6.42528 11.1603 6.44376 11.2191 6.44292H11.33V7.56432H11.9591V7.81632H11.3359C11.3359 7.84404 11.3308 7.86336 11.3308 7.88268C11.3308 8.4228 11.3308 8.96292 11.3308 9.5022C11.3353 9.60965 11.3457 9.71677 11.3619 9.82308C11.3656 9.84445 11.3718 9.86531 11.3804 9.88524C11.4039 9.94404 11.435 9.9978 11.5064 10.0062C11.5397 10.0105 11.5734 10.0034 11.6022 9.98623C11.631 9.96902 11.6532 9.94262 11.6651 9.91128C11.7045 9.82087 11.7351 9.72693 11.7567 9.63072C11.7802 9.52656 11.7869 9.42324 11.8021 9.31572Z" fill="black"/>
<path d="M22.1376 0C22.1292 0.21 22.1334 0.42 22.1124 0.62076C22.0427 1.31796 21.6807 1.85472 21.1506 2.28396C20.8472 2.5322 20.4727 2.67752 20.0813 2.69892C20.0385 2.69892 19.9973 2.69892 19.9528 2.69892C19.7495 1.39776 20.9221 0.04452 22.1376 0Z" fill="black"/>
<path d="M35.6015 10.1556V10.4009H34.055C34.055 10.3278 34.055 10.2555 34.055 10.1841C34.055 10.1707 34.0802 10.1514 34.0979 10.1472C34.281 10.0959 34.3314 10.0413 34.3322 9.85065C34.3322 9.25845 34.3322 8.66542 34.3322 8.07238C34.3322 8.04634 34.3255 8.0203 34.323 7.99426C34.321 7.95326 34.3042 7.9144 34.2755 7.885C34.2469 7.85559 34.2085 7.83769 34.1676 7.83465L34.0391 7.81618V7.56838L35.1042 7.48438V8.10513H35.1185C35.1302 8.08497 35.142 8.06565 35.1529 8.04549C35.2275 7.89319 35.3358 7.7599 35.4696 7.65574C35.5571 7.59011 35.6589 7.54616 35.7666 7.52747C35.8744 7.50878 35.985 7.51589 36.0895 7.54822C36.1546 7.56571 36.2156 7.59609 36.2687 7.63756C36.3219 7.67903 36.3662 7.73075 36.399 7.78965C36.4318 7.84855 36.4525 7.91344 36.4598 7.98047C36.4671 8.0475 36.4609 8.11532 36.4415 8.17989C36.4206 8.2431 36.3854 8.30061 36.3385 8.34788C36.2916 8.39516 36.2344 8.43091 36.1714 8.45232C36.1084 8.47374 36.0413 8.48023 35.9753 8.47129C35.9093 8.46236 35.8464 8.43823 35.7913 8.40082C35.7439 8.37002 35.7075 8.32493 35.6874 8.27207C35.6673 8.21921 35.6646 8.16133 35.6796 8.10682C35.6897 8.0623 35.7023 8.01777 35.7098 7.97241C35.7216 7.89933 35.6821 7.85818 35.6082 7.86322C35.5721 7.86771 35.5374 7.88032 35.5069 7.9001C35.4763 7.91989 35.4507 7.94633 35.4318 7.97745C35.3294 8.11544 35.2603 8.27531 35.2302 8.44449C35.2008 8.59523 35.1831 8.748 35.1773 8.90145C35.1697 9.19965 35.1773 9.4987 35.1773 9.7969C35.1777 9.84086 35.1819 9.8847 35.1899 9.92793C35.1909 9.95954 35.1983 9.99061 35.2117 10.0193C35.2251 10.0479 35.2441 10.0736 35.2676 10.0947C35.2912 10.1158 35.3188 10.1319 35.3487 10.1421C35.3786 10.1523 35.4103 10.1563 35.4419 10.1539C35.4939 10.1581 35.5435 10.1556 35.6015 10.1556Z" fill="black"/>
<path d="M0.68206 7.02514C0.60814 7.01422 0.55354 7.01086 0.50062 6.99742C0.411465 6.97894 0.331807 6.92931 0.27593 6.85743C0.220052 6.78554 0.191609 6.6961 0.1957 6.60514C0.199471 6.50881 0.236938 6.41686 0.301567 6.34532C0.366195 6.27378 0.453883 6.2272 0.54934 6.2137C0.629745 6.1943 0.713623 6.19439 0.793985 6.21397C0.874348 6.23355 0.948869 6.27205 1.01134 6.32626C1.06203 6.36902 1.10066 6.42429 1.1234 6.48658C1.14615 6.54888 1.15222 6.61603 1.14102 6.68139C1.12981 6.74676 1.10172 6.80806 1.05952 6.85922C1.01733 6.91038 0.962495 6.94962 0.90046 6.97306C0.82918 6.99627 0.756143 7.01369 0.68206 7.02514Z" fill="black"/>
</g>
<defs>
<clipPath id="clip0_1_491">
<rect width="42" height="11.1955" fill="white"/>
</clipPath>
</defs>
</svg>
