<svg width="35" height="25" viewBox="0 0 35 25" fill="none" xmlns="http://www.w3.org/2000/svg">
<g clip-path="url(#clip0_1_438)">
<path d="M18.6924 0.0882431C21.7085 0.482892 24.244 2.80545 25.017 5.77308C25.2517 6.67388 25.3367 7.59808 25.2258 8.51259C25.0205 10.2071 24.3882 11.7197 23.1756 12.9753C22.3294 13.8514 21.3773 14.5369 20.2379 14.9726C19.0523 15.4262 17.813 15.5759 16.5788 15.4099C12.6853 14.8877 10.1324 11.8314 9.81674 8.49193C9.79535 8.26673 9.81491 8.16656 10.0695 8.17004C10.7042 8.17899 11.3392 8.17004 11.9741 8.16254C12.1327 8.16071 12.2245 8.17662 12.2459 8.38061C12.4451 10.2758 14.0431 11.6807 15.9474 11.6146C17.0054 11.578 18.0629 11.578 19.1205 11.584C19.4234 11.5857 19.4996 11.4881 19.4896 11.1991C19.4634 10.4513 19.4755 10.4533 20.2079 10.4496C20.8192 10.4468 21.4304 10.4403 22.0415 10.4299C22.5294 10.4217 22.8641 10.1352 22.8588 9.73931C22.8539 9.33826 22.5228 9.0723 22.0267 9.0776C21.2745 9.08564 20.5222 9.08948 19.7703 9.11178C19.5369 9.11873 19.4634 9.04305 19.4629 8.81237C19.461 8.06085 19.447 7.30951 19.4207 6.55836C19.4115 6.31159 19.512 6.26936 19.7292 6.26863C20.505 6.26607 21.2807 6.25035 22.0562 6.22823C22.4583 6.2169 22.7275 6.00468 22.7795 5.68973C22.8506 5.25834 22.5561 4.91103 22.0953 4.9103C21.3076 4.90921 20.5198 4.91378 19.7327 4.93571C19.4718 4.94302 19.3854 4.86662 19.3865 4.59992C19.3909 3.81391 19.3803 3.80898 18.5858 3.8172C17.6454 3.82689 16.7047 3.8311 15.765 3.86236C13.8718 3.92578 12.3992 5.315 12.2369 7.17949C12.2223 7.34857 12.1786 7.43119 11.9896 7.43539C11.3551 7.44874 10.7205 7.46976 10.0867 7.50504C9.82679 7.51948 9.76702 7.42772 9.7895 7.17821C10.0842 3.91902 12.1203 1.33416 15.1928 0.340314C15.5584 0.221864 15.9295 0.111458 16.3176 0.0906195C16.4335 0.0844045 17.2081 0.0019651 17.5295 0.0019651C17.8432 0.000868346 18.5946 0.0754476 18.6924 0.0882431Z" fill="#050505"/>
<path d="M13.6377 20.3079C13.6377 19.4745 13.6397 18.6412 13.6377 17.8078C13.6377 17.6356 13.6159 17.472 13.8753 17.4808C14.0992 17.4883 14.144 17.6022 14.1403 17.7992C14.1305 18.3273 14.1343 18.8556 14.1367 19.3839C14.1367 19.4711 14.093 19.5868 14.2098 19.6303C14.3195 19.6712 14.3793 19.5707 14.4381 19.5041C15.3192 18.5081 17.1818 18.8563 17.7324 20.3709C17.7735 20.4843 17.7406 20.6742 17.902 20.6808C18.0772 20.6881 18.0368 20.5007 18.0728 20.3856C18.5071 18.9963 20.2634 18.4915 21.3658 19.4382C21.4411 19.5029 21.4968 19.6303 21.6244 19.5705C21.7299 19.5211 21.693 19.406 21.6932 19.3173C21.6932 19.1254 21.7813 19.0398 21.9756 19.0514C22.1737 19.0632 22.1907 19.1954 22.1905 19.3464C22.1893 20.5082 22.1867 21.6699 22.1889 22.8317C22.1889 23.0182 22.1255 23.1136 21.9249 23.1187C21.7244 23.1238 21.6899 23.0141 21.6959 22.8513C21.6992 22.7622 21.7325 22.6546 21.6197 22.6045C21.5069 22.5544 21.4464 22.6482 21.3806 22.7092C20.435 23.5866 18.5612 23.3194 18.0644 21.7077C18.0344 21.6103 18.0417 21.4745 17.8998 21.4794C17.7812 21.4834 17.7847 21.6074 17.7598 21.694C17.3182 23.2313 15.347 23.6864 14.3921 22.6352C14.344 22.5824 14.295 22.5232 14.216 22.5476C14.1107 22.5805 14.1332 22.6745 14.1349 22.7546C14.1372 22.8811 14.176 23.02 14.0265 23.096C13.8153 23.2035 13.6413 23.0947 13.64 22.8434C13.6344 21.9984 13.6377 21.1531 13.6377 20.3079ZM14.1049 21.0665C14.1021 21.9889 14.8165 22.7317 15.706 22.7315C16.5954 22.7314 17.3465 21.9808 17.3511 21.0928C17.356 20.2123 16.5958 19.4111 15.7471 19.4021C14.8317 19.3925 14.1074 20.1262 14.1045 21.0665H14.1049ZM20.0879 19.4396C19.1953 19.4396 18.4599 20.1836 18.4643 21.0826C18.4691 22.0117 19.2138 22.7403 20.1561 22.7383C21.0377 22.7367 21.7281 22.0104 21.7233 21.0913C21.7171 20.1384 21.0263 19.4407 20.0875 19.4405L20.0879 19.4396Z" fill="#EC1819"/>
<path d="M29.5037 21.1156C28.9869 21.1156 28.47 21.1236 27.9534 21.1121C27.7118 21.1066 27.6427 21.1942 27.6845 21.4274C27.7942 22.0332 28.1273 22.4722 28.706 22.6613C29.2993 22.855 29.8676 22.7408 30.3462 22.3176C30.4675 22.2101 30.5655 22.0734 30.6602 21.9396C30.7712 21.7813 30.8814 21.8076 31.0168 21.903C31.1572 22.001 31.142 22.095 31.0594 22.2278C30.667 22.8599 30.0828 23.1722 29.3595 23.1981C28.1761 23.2405 27.4623 22.6497 27.1978 21.5793C26.887 20.3222 27.7428 19.2677 28.6725 19.0096C29.8956 18.6698 31.1835 19.5397 31.323 20.7975C31.3473 21.0168 31.3062 21.1251 31.0528 21.1176C30.5364 21.1026 30.0193 21.1132 29.5024 21.1132L29.5037 21.1156ZM29.2328 20.6809V20.6849C29.6439 20.6849 30.0553 20.6836 30.4661 20.6849C30.6818 20.6849 30.8179 20.6397 30.711 20.3765C30.4801 19.8088 29.9384 19.4397 29.3068 19.4326C28.5634 19.4244 28.0856 19.7179 27.8121 20.3217C27.6955 20.5791 27.7342 20.6898 28.0337 20.6827C28.4338 20.6737 28.8336 20.6809 29.2328 20.6809Z" fill="#EC1819"/>
<path d="M13.0302 21.0739C13.0302 21.6376 13.0302 22.2013 13.0302 22.7649C13.0302 22.9294 13.0682 23.11 12.8055 23.1056C12.58 23.1018 12.528 22.9815 12.5549 22.7828C12.5666 22.6962 12.6028 22.5817 12.4831 22.5393C12.3893 22.5066 12.3368 22.5982 12.2833 22.6545C11.6007 23.3615 10.359 23.3242 9.667 22.7678C8.84225 22.1046 8.60535 20.99 9.10163 20.0387C9.55349 19.173 10.6214 18.7485 11.5779 19.0576C11.8508 19.1457 12.0787 19.3092 12.2875 19.5027C12.3496 19.5605 12.3877 19.6888 12.5068 19.6252C12.5939 19.5784 12.546 19.4775 12.5562 19.4C12.5721 19.2816 12.4953 19.1331 12.6622 19.0622C12.8633 18.9768 13.0267 19.0832 13.0278 19.3125C13.0329 19.8996 13.03 20.4867 13.0302 21.0739ZM10.9613 22.7468C11.8596 22.7517 12.6015 22.0416 12.6094 21.1695C12.6178 20.225 11.9261 19.4695 11.0873 19.4207C9.96843 19.355 9.3155 20.3405 9.31952 21.072C9.32464 21.9891 10.0613 22.742 10.9613 22.7468Z" fill="#050505"/>
<path d="M4.1396 21.489C4.06282 22.3231 3.25616 23.2506 2.01921 23.1918C1.01385 23.144 0.20426 22.4587 0.0450476 21.5819C-0.148347 20.5164 0.287979 19.6123 1.21876 19.1498C2.43488 18.5466 3.9462 19.3427 4.14015 20.6889C4.19882 20.9524 4.19864 21.2256 4.1396 21.489ZM2.08794 19.4331C1.23393 19.4379 0.435492 20.2228 0.463277 21.0947C0.497642 22.1507 1.3107 22.7626 2.12449 22.7485C3.0061 22.7333 3.74623 21.9712 3.73307 21.0768C3.721 20.1925 2.9562 19.4284 2.08794 19.4331Z" fill="#050505"/>
<path d="M31.5333 19.0511C31.7181 19.0224 31.7808 19.1607 31.8459 19.307C32.2078 20.1133 32.5713 20.919 32.9364 21.7241C32.9701 21.7983 33.0019 21.8736 33.0414 21.9434C33.1327 22.1061 33.2042 22.0796 33.2735 21.9226C33.5351 21.3303 33.8036 20.7412 34.0632 20.1482C34.1833 19.874 34.2851 19.5921 34.4059 19.3187C34.4434 19.2327 34.5015 19.1574 34.5752 19.0993C34.6272 19.0602 34.6899 19.0379 34.755 19.0354C34.82 19.0329 34.8843 19.0502 34.9393 19.0851C35.0553 19.16 34.9738 19.279 34.9338 19.3699C34.2026 21.0334 33.4709 22.6968 32.7385 24.3601C32.6743 24.5063 32.5805 24.586 32.4259 24.603C32.1828 24.6297 32.1194 24.5312 32.2268 24.2875C32.4112 23.8691 32.5968 23.4511 32.7836 23.0338C32.8597 22.8647 32.871 22.7082 32.7884 22.5293C32.2934 21.4575 31.8106 20.3802 31.318 19.3072C31.2074 19.0666 31.3368 19.0445 31.5333 19.0511Z" fill="#EC1819"/>
<path d="M8.53486 19.2716C8.53596 19.0961 8.45571 19.0575 8.3018 19.0474C8.03584 19.0292 8.06325 19.2017 8.06764 19.3708C8.06965 19.449 8.09524 19.5437 7.99818 19.5865C7.90496 19.6276 7.84701 19.5529 7.78486 19.5022C7.72271 19.4516 7.66075 19.3942 7.59512 19.345C6.45779 18.4919 4.76184 19.1191 4.4447 20.5091L4.43976 20.5226C4.43976 20.5226 4.43428 20.5425 4.43409 20.5427C4.40686 20.6308 4.39498 20.7814 4.36628 20.9494C4.36518 21.2091 4.34252 21.1291 4.36628 21.3393C4.39169 21.4161 4.40284 21.521 4.42788 21.5992C4.80352 22.8153 6.05345 23.407 7.23411 22.9274C7.45346 22.8382 7.64649 22.708 7.82526 22.553C7.92909 22.4631 8.06124 22.4196 8.06856 22.6143C8.08683 23.1093 8.00586 23.5847 7.58123 23.9106C6.85993 24.4641 5.6928 24.3384 5.08356 23.6547C5.03676 23.6023 4.99929 23.5354 4.94207 23.4993C4.8048 23.4127 4.62146 23.3933 4.51014 23.4785C4.36244 23.5915 4.54359 23.7105 4.60299 23.7986C5.13547 24.5915 5.93976 24.7573 6.80674 24.6542C8.06216 24.5049 8.46869 23.7997 8.51 22.9692C8.57123 21.7394 8.52736 20.5045 8.53486 19.2716ZM6.44646 22.6552C5.51038 22.6495 4.84227 21.9803 4.82454 21.0764C4.80626 20.1321 5.72168 19.3555 6.58428 19.4161C7.42951 19.4755 8.11206 20.1678 8.10383 21.0764C8.09543 21.9948 7.39625 22.6603 6.44646 22.6552Z" fill="#050505"/>
<path d="M24.4451 22.7928C24.511 22.7318 24.5661 22.6601 24.608 22.5807C24.6666 22.4708 24.7096 22.3532 24.7359 22.2314C24.7359 22.208 24.7378 22.185 24.74 22.166C24.824 21.4326 24.3272 21.0793 23.7273 20.7985C23.5233 20.7031 23.3295 20.5813 23.1736 20.4186C23.0107 20.2486 22.8937 20.0423 23.0164 19.7992C23.1474 19.5392 23.36 19.3842 23.669 19.4091C23.882 19.4262 24.0828 19.5158 24.2378 19.663C24.3658 19.7812 24.4855 19.7951 24.5919 19.6432C24.6913 19.501 24.6513 19.3873 24.5164 19.2848C24.2473 19.0788 23.9532 18.9501 23.6097 18.9512C23.0144 18.9534 22.5537 19.4122 22.5378 20.0072C22.5247 20.5036 22.8012 20.8021 23.1825 21.0374C23.4421 21.1975 23.7145 21.3372 23.9686 21.5044C24.217 21.6673 24.3402 21.9079 24.2455 22.2031C24.1481 22.5065 23.9287 22.692 23.6028 22.7284C23.3008 22.7622 23.0504 22.6469 22.835 22.4438C22.7341 22.348 22.6451 22.2621 22.5223 22.4242C22.3994 22.5864 22.3267 22.6931 22.6479 22.9302C23.1935 23.3324 23.9408 23.2592 24.4376 22.7975L24.4451 22.7928Z" fill="#EC1819"/>
<path d="M26.8044 22.7928C26.8703 22.7318 26.9254 22.6601 26.9672 22.5807C27.0259 22.4708 27.069 22.3532 27.0952 22.2314C27.0952 22.208 27.097 22.185 27.0992 22.166C27.1833 21.4326 26.6865 21.0793 26.0866 20.7985C25.8826 20.7031 25.6888 20.5813 25.5329 20.4186C25.37 20.2486 25.253 20.0423 25.3757 19.7992C25.5067 19.5392 25.7193 19.3842 26.0282 19.4091C26.2413 19.4262 26.4421 19.5158 26.5971 19.663C26.725 19.7812 26.8448 19.7951 26.9512 19.6432C27.0506 19.501 27.0106 19.3873 26.8757 19.2848C26.6066 19.0788 26.3125 18.9501 25.969 18.9512C25.3737 18.9534 24.913 19.4122 24.8971 20.0072C24.884 20.5036 25.1605 20.8021 25.5418 21.0374C25.8014 21.1975 26.0739 21.3372 26.3278 21.5044C26.5762 21.6673 26.6995 21.9079 26.6048 22.2031C26.5073 22.5065 26.288 22.692 25.9621 22.7284C25.6601 22.7622 25.4097 22.6469 25.1943 22.4438C25.0934 22.348 25.0044 22.2621 24.8816 22.4242C24.7588 22.5864 24.6862 22.6931 25.0072 22.9302C25.5528 23.3324 26.3001 23.2592 26.7971 22.7975L26.8044 22.7928Z" fill="#EC1819"/>
</g>
<defs>
<clipPath id="clip0_1_438">
<rect width="35" height="24.6828" fill="white"/>
</clipPath>
</defs>
</svg>
