<svg width="42" height="18" viewBox="0 0 42 18" fill="none" xmlns="http://www.w3.org/2000/svg">
<g clip-path="url(#clip0_1_473)">
<path d="M21.3281 8.67182H21.7813V7.79494C21.7813 7.23776 21.8551 6.83834 22.0263 6.61429C22.377 6.15529 23.4687 6.08481 23.7045 6.16956V7.01707C23.7045 7.01707 23.196 7.02546 22.9938 7.3695C22.9216 7.51279 22.8883 7.67251 22.8973 7.8327L22.8922 8.20107V8.67182H23.6567V9.38927H22.8922V14.3896H21.7813V9.38927H21.3281V8.67182Z" fill="#C1C1CE"/>
<path d="M27.8275 11.558C27.8275 13.4438 27.2077 14.3864 25.968 14.3858C24.7284 14.3852 24.1088 13.4284 24.1094 11.5152C24.1094 9.59414 24.7272 8.63362 25.963 8.63362C26.2496 8.62519 26.5344 8.6826 26.7954 8.80145C27.0353 8.92124 27.2365 9.1062 27.3761 9.33513C27.5436 9.61553 27.6587 9.92402 27.7159 10.2456C27.7966 10.6783 27.8339 11.1179 27.8275 11.558ZM26.6947 11.5311C26.6947 10.7983 26.6432 10.2884 26.5403 10.0014C26.4371 9.71106 26.2542 9.56505 25.9915 9.56505C25.7289 9.56505 25.5468 9.70938 25.436 9.99636C25.3253 10.2833 25.2816 10.7843 25.2816 11.4992C25.2816 12.2142 25.3337 12.7126 25.436 12.9962C25.5384 13.2798 25.7322 13.4275 25.9915 13.4275C26.2508 13.4275 26.4321 13.2857 26.5344 13.0021C26.6418 12.7364 26.6953 12.246 26.6947 11.5311Z" fill="#C1C1CE"/>
<path d="M28.5117 9.68956C28.5119 9.42793 28.6129 9.17642 28.7937 8.98733C28.9745 8.79823 29.2212 8.68609 29.4826 8.67422C29.9861 8.65156 30.5382 8.62891 30.7782 8.62891C31.2503 8.62891 31.5879 8.80932 31.791 9.17014C31.9029 9.37433 31.9588 9.76983 31.9588 10.3567V14.3844H30.8848L30.8797 10.6008C30.8797 10.2182 30.8327 9.94661 30.7387 9.78605C30.6448 9.6255 30.4837 9.54523 30.2554 9.54523C30.1479 9.54191 30.0411 9.56345 29.9433 9.60816C29.8558 9.65321 29.7842 9.72373 29.7377 9.81039C29.6788 9.92431 29.6399 10.0475 29.6227 10.1746C29.5959 10.3574 29.5835 10.542 29.5858 10.7267V14.3886H28.5117V9.68956Z" fill="#C1C1CE"/>
<path d="M36.5742 13.5776C36.3065 14.2422 35.605 14.4956 34.8212 14.4956C34.476 14.4912 34.1345 14.4226 33.8143 14.2934C33.5793 14.1826 33.3578 13.9343 33.2043 13.701C33.0355 13.4291 32.9202 13.1275 32.8644 12.8124C32.7856 12.3896 32.7487 11.9602 32.7545 11.5302C32.7545 10.5467 32.9053 9.81781 33.2068 9.34343C33.5083 8.86904 33.9746 8.63213 34.6056 8.63269C35.8307 8.63269 36.4435 9.6167 36.4441 11.5847V11.7139L33.8605 12.3341C33.8915 12.9139 34.3161 13.6129 34.8363 13.6129C35.172 13.6129 35.5672 13.508 35.6646 13.1421C35.6839 13.0683 35.939 13.1102 36.1764 13.2034C36.4139 13.2965 36.6279 13.4434 36.5742 13.5776ZM35.2878 10.9705C35.2408 10.3848 35.1678 10.0005 35.0688 9.81753C35.0267 9.72236 34.9568 9.64213 34.8683 9.58733C34.7798 9.53254 34.6768 9.50573 34.5729 9.51041C34.4686 9.50448 34.365 9.53076 34.2761 9.5857C34.1872 9.64064 34.1174 9.72157 34.0761 9.81753C33.9771 10.0005 33.8571 10.5795 33.8571 11.3842L35.2878 10.9705Z" fill="#C1C1CE"/>
<path d="M39.6252 8.87772V9.85781C39.3933 9.67779 39.109 9.57823 38.8154 9.57419C38.7247 9.57315 38.6347 9.58968 38.5503 9.62285C38.472 9.65394 38.4003 9.69949 38.3388 9.75711C38.2777 9.81371 38.2289 9.88226 38.1953 9.9585C38.1599 10.0376 38.1422 10.1235 38.1433 10.2102C38.1433 10.4793 38.3892 10.7993 38.8809 11.1702C39.0549 11.3015 39.2206 11.4436 39.3768 11.5956C39.4929 11.7061 39.5946 11.8307 39.6797 11.9665C39.8319 12.2293 39.9064 12.5299 39.8946 12.8333C39.8946 13.3368 39.746 13.7424 39.449 14.0501C39.1519 14.3577 38.7578 14.5063 38.2667 14.4956C37.9409 14.489 37.6226 14.397 37.3436 14.2288V13.2218C37.6479 13.4456 37.9363 13.5575 38.2088 13.5575C38.6899 13.5575 38.9304 13.3231 38.9304 12.8543C38.9342 12.6932 38.8879 12.5348 38.7978 12.4012C38.7424 12.3223 38.6779 12.2502 38.6057 12.1864C38.5167 12.1025 38.4085 12.0127 38.2801 11.9103C37.8359 11.5691 37.5349 11.2818 37.3772 11.0485C37.2172 10.7883 37.1367 10.487 37.1456 10.1817C37.138 9.97641 37.1715 9.77167 37.2443 9.57956C37.3171 9.38744 37.4276 9.21186 37.5694 9.06316C37.8563 8.77618 38.2292 8.63269 38.6879 8.63269C39.0159 8.63512 39.338 8.71934 39.6252 8.87772Z" fill="#C1C1CE"/>
<path d="M40.8164 8.34254C40.8967 8.32821 40.9782 8.32147 41.0598 8.3224C41.161 8.31203 41.2624 8.34053 41.3434 8.40212C41.3688 8.42588 41.3888 8.45479 41.4021 8.48692C41.4154 8.51905 41.4217 8.55364 41.4206 8.5884C41.4216 8.64478 41.4041 8.69994 41.3707 8.74542C41.3374 8.79089 41.29 8.82417 41.236 8.84014C41.275 8.85762 41.3088 8.88502 41.334 8.91962C41.3592 8.95421 41.3748 8.9948 41.3795 9.03733C41.3966 9.12918 41.4219 9.21932 41.455 9.30669H41.3241C41.2948 9.23092 41.2729 9.15253 41.2586 9.07258C41.2293 8.93748 41.1747 8.88629 41.0631 8.88209H40.9431V9.30669H40.8164V8.34254ZM40.9431 8.78895H41.0732C41.2074 8.78895 41.2939 8.71427 41.2939 8.60267C41.2939 8.47596 41.2024 8.42058 41.0681 8.41974C41.0261 8.41858 40.9842 8.42252 40.9431 8.43149V8.78895Z" fill="#C1C1CE"/>
<path d="M41.1365 7.99219C40.9737 7.99202 40.8144 8.04016 40.679 8.13051C40.5435 8.22086 40.4378 8.34937 40.3754 8.49977C40.313 8.65017 40.2965 8.81571 40.3282 8.97545C40.3599 9.13518 40.4382 9.28194 40.5533 9.39714C40.6684 9.51235 40.8151 9.59084 40.9748 9.62267C41.1345 9.6545 41.3 9.63824 41.4505 9.57597C41.601 9.51369 41.7296 9.40818 41.8201 9.27279C41.9106 9.1374 41.9589 8.97821 41.9589 8.81537C41.9589 8.59719 41.8722 8.38794 41.718 8.23359C41.5639 8.07924 41.3547 7.99241 41.1365 7.99219ZM41.1365 9.53449C40.9943 9.53449 40.8553 9.49232 40.737 9.4133C40.6187 9.33428 40.5266 9.22197 40.4721 9.09056C40.4177 8.95916 40.4035 8.81457 40.4312 8.67507C40.459 8.53557 40.5274 8.40744 40.628 8.30687C40.7286 8.2063 40.8567 8.13781 40.9962 8.11006C41.1357 8.08231 41.2803 8.09655 41.4117 8.15098C41.5431 8.20541 41.6554 8.29758 41.7344 8.41584C41.8135 8.5341 41.8556 8.67314 41.8556 8.81537C41.8554 9.00602 41.7796 9.18881 41.6448 9.32362C41.51 9.45844 41.3272 9.53427 41.1365 9.53449Z" fill="#C1C1CE"/>
<path d="M5.43533 9.57617C5.16513 9.57617 4.97241 9.72162 4.85717 10.0125C4.74193 10.3034 4.68823 10.8111 4.69606 11.5355C4.69606 12.2588 4.74976 12.7646 4.85717 13.0527C4.96458 13.3408 5.1573 13.4862 5.43533 13.489C5.70552 13.489 5.89517 13.3455 6.00257 13.0577C6.11446 12.7886 6.1704 12.2921 6.1704 11.5682C6.1704 10.8259 6.11669 10.3093 6.00929 10.0184C5.90188 9.72749 5.71056 9.58009 5.43533 9.57617Z" fill="#F31B00"/>
<path d="M13.4455 12.5439C13.4287 13.5038 14.5062 13.4871 14.5062 13.4871V11.3809C14.5062 11.3809 13.4623 11.5864 13.4455 12.5439Z" fill="#F31B00"/>
<path d="M21.0956 12.4154L20.7868 6.90653C20.7636 6.48711 20.6555 6.07677 20.4691 5.70035C20.2827 5.32392 20.0218 4.98924 19.7023 4.71655C19.3828 4.44387 19.0112 4.23886 18.6102 4.11393C18.2091 3.989 17.7869 3.94675 17.3691 3.98974L16.9621 4.0317V0.493119C16.9648 0.426557 16.9541 0.360126 16.9305 0.29782C16.9069 0.235514 16.871 0.178617 16.8249 0.13055C16.7788 0.0824829 16.7234 0.0442373 16.6621 0.0181107C16.6008 -0.00801601 16.5349 -0.0214844 16.4683 -0.0214844C16.4016 -0.0214844 16.3357 -0.00801601 16.2744 0.0181107C16.2132 0.0442373 16.1578 0.0824829 16.1117 0.13055C16.0655 0.178617 16.0296 0.235514 16.006 0.29782C15.9824 0.360126 15.9717 0.426557 15.9744 0.493119V4.13407L9.30678 4.82215V10.9729L10.37 8.70728H11.929L10.7333 10.9729L11.929 14.4578H10.3121L9.30511 11.1189V14.4578H7.92811V4.96648L2.33117 5.54547C1.98746 5.58135 1.65435 5.68536 1.35129 5.85142C1.04823 6.01748 0.781289 6.24226 0.566069 6.51263C0.350848 6.78301 0.191657 7.09355 0.0977935 7.42614C0.00392983 7.75872 -0.022725 8.10667 0.0193858 8.44967L0.926476 15.7861C0.968282 16.1291 1.08025 16.4598 1.25542 16.7577C1.43059 17.0555 1.66519 17.3141 1.94464 17.5174C2.22408 17.7206 2.54238 17.8642 2.8797 17.9391C3.21703 18.014 3.56616 18.0186 3.90536 17.9527L17.4396 15.3514L17.6426 14.7028L16.4821 8.63176H17.8591L18.5103 12.1225L19.3704 8.63596H20.6072L18.7318 15.1039L19.0498 15.0426C19.6514 14.9273 20.1906 14.5972 20.567 14.1139C20.9433 13.6305 21.1312 13.0269 21.0956 12.4154ZM5.40823 14.4595C4.11598 14.4595 3.46957 13.49 3.46901 11.5511C3.46846 9.61213 4.11178 8.63903 5.399 8.63176C5.69763 8.62429 5.99413 8.68393 6.26665 8.8063C6.51804 8.92489 6.73071 9.11225 6.88005 9.34669C7.05417 9.6299 7.17451 9.94282 7.23499 10.2697C7.3182 10.7066 7.357 11.1508 7.35079 11.5955C7.348 13.5048 6.70047 14.4595 5.40823 14.4595ZM15.8133 14.0911L15.4903 14.2119C15.2739 14.2941 15.0486 14.3504 14.819 14.3797C14.4422 14.4297 14.0628 14.4578 13.6828 14.4637C12.7522 14.4637 12.2773 13.6245 12.2773 12.7686C12.2773 11.3421 12.743 10.4376 14.5186 10.4493V10.3276C14.5186 9.8401 14.3835 9.57997 13.6794 9.57997C13.4101 9.57997 13.2481 9.62696 12.8034 9.86779L12.6129 9.16041C13.0416 8.81796 13.5747 8.63285 14.1233 8.63596C15.528 8.63596 15.8704 9.52375 15.8704 10.7069C15.8712 10.7027 15.8628 12.3642 15.815 14.0911H15.8133Z" fill="#F31B00"/>
</g>
<defs>
<clipPath id="clip0_1_473">
<rect width="41.9561" height="18" fill="white"/>
</clipPath>
</defs>
</svg>
