<svg width="30" height="29" viewBox="0 0 30 29" fill="none" xmlns="http://www.w3.org/2000/svg">
<path d="M4.75411 0.504H7.74211C8.28611 0.504 8.73411 0.58 9.08611 0.732C9.43811 0.876 9.71411 1.064 9.91411 1.296C10.1221 1.52 10.2661 1.776 10.3461 2.064C10.4261 2.344 10.4661 2.616 10.4661 2.88C10.4661 3.144 10.4261 3.42 10.3461 3.708C10.2661 3.988 10.1221 4.244 9.91411 4.476C9.71411 4.7 9.43811 4.888 9.08611 5.04C8.73411 5.184 8.28611 5.256 7.74211 5.256H5.90611V9H4.75411V0.504ZM5.90611 4.248H7.41811C7.64211 4.248 7.86211 4.232 8.07811 4.2C8.30211 4.16 8.49811 4.092 8.66611 3.996C8.84211 3.9 8.98211 3.764 9.08611 3.588C9.19011 3.404 9.24211 3.168 9.24211 2.88C9.24211 2.592 9.19011 2.36 9.08611 2.184C8.98211 2 8.84211 1.86 8.66611 1.764C8.49811 1.668 8.30211 1.604 8.07811 1.572C7.86211 1.532 7.64211 1.512 7.41811 1.512H5.90611V4.248ZM11.6154 4.008C11.9194 3.728 12.2714 3.52 12.6714 3.384C13.0714 3.24 13.4714 3.168 13.8714 3.168C14.2874 3.168 14.6434 3.22 14.9394 3.324C15.2434 3.428 15.4914 3.568 15.6834 3.744C15.8754 3.92 16.0154 4.124 16.1034 4.356C16.1994 4.58 16.2474 4.816 16.2474 5.064V7.968C16.2474 8.168 16.2514 8.352 16.2594 8.52C16.2674 8.688 16.2794 8.848 16.2954 9H15.3354C15.3114 8.712 15.2994 8.424 15.2994 8.136H15.2754C15.0354 8.504 14.7514 8.764 14.4234 8.916C14.0954 9.068 13.7154 9.144 13.2834 9.144C13.0194 9.144 12.7674 9.108 12.5274 9.036C12.2874 8.964 12.0754 8.856 11.8914 8.712C11.7154 8.568 11.5754 8.392 11.4714 8.184C11.3674 7.968 11.3154 7.72 11.3154 7.44C11.3154 7.072 11.3954 6.764 11.5554 6.516C11.7234 6.268 11.9474 6.068 12.2274 5.916C12.5154 5.756 12.8474 5.644 13.2234 5.58C13.6074 5.508 14.0154 5.472 14.4474 5.472H15.2394V5.232C15.2394 5.088 15.2114 4.944 15.1554 4.8C15.0994 4.656 15.0154 4.528 14.9034 4.416C14.7914 4.296 14.6514 4.204 14.4834 4.14C14.3154 4.068 14.1154 4.032 13.8834 4.032C13.6754 4.032 13.4914 4.052 13.3314 4.092C13.1794 4.132 13.0394 4.184 12.9114 4.248C12.7834 4.304 12.6674 4.372 12.5634 4.452C12.4594 4.532 12.3594 4.608 12.2634 4.68L11.6154 4.008ZM14.6634 6.264C14.4074 6.264 14.1434 6.28 13.8714 6.312C13.6074 6.336 13.3634 6.388 13.1394 6.468C12.9234 6.548 12.7434 6.66 12.5994 6.804C12.4634 6.948 12.3954 7.132 12.3954 7.356C12.3954 7.684 12.5034 7.92 12.7194 8.064C12.9434 8.208 13.2434 8.28 13.6194 8.28C13.9154 8.28 14.1674 8.232 14.3754 8.136C14.5834 8.032 14.7514 7.9 14.8794 7.74C15.0074 7.58 15.0994 7.404 15.1554 7.212C15.2114 7.012 15.2394 6.816 15.2394 6.624V6.264H14.6634ZM17.13 3.312H18.378L20.07 7.752H20.094L21.702 3.312H22.866L20.166 10.224C20.07 10.472 19.97 10.696 19.866 10.896C19.762 11.104 19.638 11.28 19.494 11.424C19.35 11.568 19.174 11.68 18.966 11.76C18.766 11.84 18.518 11.88 18.222 11.88C18.062 11.88 17.898 11.868 17.73 11.844C17.57 11.828 17.414 11.788 17.262 11.724L17.394 10.74C17.61 10.828 17.826 10.872 18.042 10.872C18.21 10.872 18.35 10.848 18.462 10.8C18.582 10.76 18.682 10.696 18.762 10.608C18.85 10.528 18.922 10.432 18.978 10.32C19.034 10.208 19.09 10.08 19.146 9.936L19.494 9.036L17.13 3.312Z" fill="#C1C1CE"/>
<path d="M5.02626 26.012H0.700258V24.248L4.74626 18.088H7.04226V24.248H8.31626V26.012H7.04226V28H5.02626V26.012ZM5.02626 20.832H4.99826L2.80026 24.248H5.02626V20.832ZM9.11141 23.044C9.11141 22.456 9.16275 21.8587 9.26541 21.252C9.37741 20.6453 9.56875 20.0947 9.83941 19.6C10.1194 19.1053 10.4974 18.704 10.9734 18.396C11.4494 18.0787 12.0561 17.92 12.7934 17.92C13.5307 17.92 14.1374 18.0787 14.6134 18.396C15.0894 18.704 15.4627 19.1053 15.7334 19.6C16.0134 20.0947 16.2047 20.6453 16.3074 21.252C16.4194 21.8587 16.4754 22.456 16.4754 23.044C16.4754 23.632 16.4194 24.2293 16.3074 24.836C16.2047 25.4427 16.0134 25.9933 15.7334 26.488C15.4627 26.9827 15.0894 27.3887 14.6134 27.706C14.1374 28.014 13.5307 28.168 12.7934 28.168C12.0561 28.168 11.4494 28.014 10.9734 27.706C10.4974 27.3887 10.1194 26.9827 9.83941 26.488C9.56875 25.9933 9.37741 25.4427 9.26541 24.836C9.16275 24.2293 9.11141 23.632 9.11141 23.044ZM11.2114 23.044C11.2114 23.3053 11.2207 23.618 11.2394 23.982C11.2674 24.346 11.3327 24.696 11.4354 25.032C11.5381 25.368 11.6921 25.6527 11.8974 25.886C12.1121 26.1193 12.4107 26.236 12.7934 26.236C13.1667 26.236 13.4607 26.1193 13.6754 25.886C13.8901 25.6527 14.0487 25.368 14.1514 25.032C14.2541 24.696 14.3147 24.346 14.3334 23.982C14.3614 23.618 14.3754 23.3053 14.3754 23.044C14.3754 22.7827 14.3614 22.47 14.3334 22.106C14.3147 21.742 14.2541 21.392 14.1514 21.056C14.0487 20.72 13.8901 20.4353 13.6754 20.202C13.4607 19.9687 13.1667 19.852 12.7934 19.852C12.4107 19.852 12.1121 19.9687 11.8974 20.202C11.6921 20.4353 11.5381 20.72 11.4354 21.056C11.3327 21.392 11.2674 21.742 11.2394 22.106C11.2207 22.47 11.2114 22.7827 11.2114 23.044ZM24.0466 25.382C24.0466 24.9993 24.1166 24.64 24.2566 24.304C24.4059 23.968 24.6019 23.674 24.8446 23.422C25.0966 23.17 25.3906 22.974 25.7266 22.834C26.0626 22.6847 26.4219 22.61 26.8046 22.61C27.1872 22.61 27.5466 22.6847 27.8826 22.834C28.2186 22.974 28.5079 23.17 28.7506 23.422C29.0026 23.674 29.1986 23.968 29.3386 24.304C29.4879 24.64 29.5626 24.9993 29.5626 25.382C29.5626 25.7647 29.4879 26.1287 29.3386 26.474C29.1986 26.81 29.0026 27.104 28.7506 27.356C28.5079 27.608 28.2186 27.8087 27.8826 27.958C27.5466 28.098 27.1872 28.168 26.8046 28.168C26.4219 28.168 26.0626 28.098 25.7266 27.958C25.3906 27.8087 25.0966 27.608 24.8446 27.356C24.6019 27.104 24.4059 26.81 24.2566 26.474C24.1166 26.1287 24.0466 25.7647 24.0466 25.382ZM28.1346 25.382C28.1346 25.0087 28.0039 24.6913 27.7426 24.43C27.4906 24.1687 27.1779 24.038 26.8046 24.038C26.4312 24.038 26.1139 24.1687 25.8526 24.43C25.6006 24.6913 25.4746 25.0087 25.4746 25.382C25.4746 25.7647 25.6006 26.0867 25.8526 26.348C26.1139 26.6093 26.4312 26.74 26.8046 26.74C27.1779 26.74 27.4906 26.6093 27.7426 26.348C28.0039 26.0867 28.1346 25.7647 28.1346 25.382ZM17.0046 20.692C17.0046 20.3093 17.0746 19.95 17.2146 19.614C17.3639 19.278 17.5599 18.984 17.8026 18.732C18.0546 18.48 18.3486 18.284 18.6846 18.144C19.0206 17.9947 19.3799 17.92 19.7626 17.92C20.1452 17.92 20.5046 17.9947 20.8406 18.144C21.1766 18.284 21.4659 18.48 21.7086 18.732C21.9606 18.984 22.1566 19.278 22.2966 19.614C22.4459 19.95 22.5206 20.3093 22.5206 20.692C22.5206 21.0747 22.4459 21.434 22.2966 21.77C22.1566 22.106 21.9606 22.4 21.7086 22.652C21.4659 22.904 21.1766 23.1047 20.8406 23.254C20.5046 23.394 20.1452 23.464 19.7626 23.464C19.3799 23.464 19.0206 23.394 18.6846 23.254C18.3486 23.1047 18.0546 22.904 17.8026 22.652C17.5599 22.4 17.3639 22.106 17.2146 21.77C17.0746 21.434 17.0046 21.0747 17.0046 20.692ZM21.0926 20.692C21.0926 20.3187 20.9619 20.0013 20.7006 19.74C20.4486 19.4787 20.1359 19.348 19.7626 19.348C19.3892 19.348 19.0719 19.4787 18.8106 19.74C18.5586 20.0013 18.4326 20.3187 18.4326 20.692C18.4326 21.0653 18.5586 21.3827 18.8106 21.644C19.0719 21.9053 19.3892 22.036 19.7626 22.036C20.1359 22.036 20.4486 21.9053 20.7006 21.644C20.9619 21.3827 21.0926 21.0653 21.0926 20.692ZM25.5446 17.64L26.7206 18.298L20.9386 28.448L19.8746 27.846L25.5446 17.64Z" fill="#274FED"/>
</svg>
